<?xml version="1.0" encoding="UTF-8" standalone="no"?>
<svg
   xmlns:dc="http://purl.org/dc/elements/1.1/"
   xmlns:cc="http://creativecommons.org/ns#"
   xmlns:rdf="http://www.w3.org/1999/02/22-rdf-syntax-ns#"
   xmlns:svg="http://www.w3.org/2000/svg"
   xmlns="http://www.w3.org/2000/svg"
   version="1.1"
   id="svg3772"
   viewBox="0 0 343.57224 459.17055"
   height="129.58813mm"
   width="96.963722mm">
  <defs
     id="defs3774">
    <clipPath
       id="clipPath3558"
       clipPathUnits="userSpaceOnUse">
      <path
         id="path3560"
         d="m 0,0 595.275,0 0,841.89 L 0,841.89 0,0 Z" />
    </clipPath>
    <clipPath
       id="clipPath3546"
       clipPathUnits="userSpaceOnUse">
      <path
         id="path3548"
         d="m 394.307,400.557 c -20.628,-28.946 -7.334,-63.438 -7.334,-63.438 l 0,0 c -11.93,-0.037 -18.17,-11.985 -13.735,-24.528 l 0,0 c 4.434,-12.545 20.77,-16.26 27.68,-17.494 l 0,0 c 6.911,-1.234 5.675,-7.516 4.455,-18.82 l 0,0 c -1.22,-11.305 -2.407,-33.284 4.503,-34.518 l 0,0 c 6.911,-1.234 3.09,15.706 2.446,20.727 l 0,0 c -0.643,5.021 -3.248,34.522 3.671,30.775 l 0,0 c 6.918,-3.745 63.438,-7.961 70.97,-7.309 l 0,0 c 7.533,0.65 13.799,4.437 16.96,-2.458 l 0,0 c 3.161,-6.896 -2.976,-51.494 -7.316,-69.087 l 0,0 c -4.339,-17.594 -5.512,-43.969 5.169,-46.445 l 0,0 c 10.682,-2.478 6.166,35.807 5.498,48.362 l 0,0 c -0.667,12.555 4.187,65.938 4.8,70.962 l 0,0 c 0.612,5.025 16.928,7.587 21.323,7.602 l 0,0 c 4.394,0.014 6.92,-4.373 5.694,-13.796 l 0,0 c -1.227,-9.422 2.56,-15.687 8.209,-15.041 l 0,0 c 5.649,0.646 2.428,26.378 1.164,28.884 l 0,0 c -1.262,2.508 1.233,7.539 6.874,10.696 l 0,0 c 5.64,3.156 8.759,10.074 6.851,17.601 l 0,0 c -1.908,7.529 -10.086,12.526 -10.086,12.526 l 0,0 c 0,0 2.45,19.471 -0.129,40.81 l 0,0 c -2.578,21.339 -32.83,57.66 -67.372,60.69 l 0,0 c -3.725,0.327 -7.456,0.493 -11.176,0.493 l 0,0 c -30.772,0 -60.716,-11.37 -79.119,-37.194" />
    </clipPath>
    <clipPath
       id="clipPath3462"
       clipPathUnits="userSpaceOnUse">
      <path
         id="path3464"
         d="m 0,0 595.275,0 0,841.89 L 0,841.89 0,0 Z" />
    </clipPath>
    <clipPath
       id="clipPath3450"
       clipPathUnits="userSpaceOnUse">
      <path
         id="path3452"
         d="m 315.832,401.948 c -22.319,-26.841 -11.821,-61.591 -11.821,-61.591 l 0,0 c -11.686,0.837 -18.671,-10.409 -15.245,-23.017 l 0,0 c 3.425,-12.608 19.152,-17.441 25.829,-19.156 l 0,0 c 6.677,-1.713 5.008,-7.776 2.986,-18.757 l 0,0 c -2.021,-10.983 -4.79,-32.421 1.888,-34.136 l 0,0 c 6.677,-1.712 4.174,15.156 3.91,20.122 l 0,0 c -0.263,4.963 -0.656,34.046 5.845,29.872 l 0,0 c 6.501,-4.176 61.545,-12.437 68.97,-12.349 l 0,0 c 7.423,0.087 13.838,3.338 16.43,-3.647 l 0,0 c 2.591,-6.985 -6.681,-50.212 -12.217,-67.125 l 0,0 c -5.537,-16.913 -8.613,-42.656 1.666,-45.864 l 0,0 c 10.28,-3.207 8.656,34.617 8.921,46.96 l 0,0 c 0.264,12.347 8.921,64.271 9.888,69.146 l 0,0 c 0.967,4.878 17.133,6.193 21.439,5.886 l 0,0 c 4.305,-0.307 6.458,-4.788 4.567,-13.925 l 0,0 c -1.889,-9.138 1.361,-15.551 6.94,-15.334 l 0,0 c 5.58,0.221 4.308,25.656 3.254,28.205 l 0,0 c -1.055,2.548 1.757,7.291 7.512,9.972 l 0,0 c 5.755,2.678 9.313,9.224 7.997,16.736 l 0,0 c -1.318,7.511 -8.962,13.004 -8.962,13.004 l 0,0 c 0,0 3.824,18.889 2.858,39.976 l 0,0 c -0.965,21.086 -27.936,58.868 -61.542,64.362 l 0,0 c -6.589,1.077 -13.237,1.635 -19.838,1.635 l 0,0 c -27.07,-10e-4 -53.333,-9.397 -71.275,-30.975" />
    </clipPath>
    <clipPath
       id="clipPath3370"
       clipPathUnits="userSpaceOnUse">
      <path
         id="path3372"
         d="m 0,0 595.275,0 0,841.89 L 0,841.89 0,0 Z" />
    </clipPath>
  </defs>
  <metadata
     id="metadata3777">
    <rdf:RDF>
      <cc:Work
         rdf:about="">
        <dc:format>image/svg+xml</dc:format>
        <dc:type
           rdf:resource="http://purl.org/dc/dcmitype/StillImage" />
        <dc:title></dc:title>
      </cc:Work>
    </rdf:RDF>
  </metadata>
  <g
     transform="translate(-193.92816,-277.06263)"
     id="layer1">
    <g
       id="g3366"
       transform="matrix(1.25,0,0,-1.25,-165.93785,824.25034)">
      <g
         clip-path="url(#clipPath3370)"
         id="g3368">
        <g
           transform="translate(301.1099,317.0757)"
           id="g3374">
          <path
             id="path3376"
             style="fill:#ffcd85;fill-opacity:1;fill-rule:nonzero;stroke:none"
             d="m 0,0 c 0,0 47.17,-187.585 52.572,-207.135 5.402,-19.549 8.872,-31.542 14.803,-35.057 5.93,-3.515 18.845,-4.438 23.767,12.519 4.921,16.956 10.237,39.448 14.324,53.374 4.086,13.925 42.211,149.455 44.459,154.965 C 152.174,-15.824 62.774,-38.487 0,0" />
        </g>
        <g
           transform="translate(304.3389,316.8448)"
           id="g3378">
          <path
             id="path3380"
             style="fill:#edb966;fill-opacity:1;fill-rule:nonzero;stroke:none"
             d="m 0,0 c 0,0 -2.733,-2.199 -0.509,-10.579 0.971,-3.66 2.449,-9.729 12.918,-16.889 13.779,-51.92 39.729,-162.651 43.864,-177.613 5.402,-19.549 5.492,-28.753 11.629,-31.894 3.917,-2.005 9.679,0.09 13.794,11.377 5.505,15.096 12.078,32.991 17.617,51.867 4.086,13.925 45.135,147.118 47.383,152.628 C 148.945,-15.593 62.774,-38.487 0,0" />
        </g>
        <g
           transform="translate(315.519,319.7545)"
           id="g3382">
          <path
             id="path3384"
             style="fill:#ffcd85;fill-opacity:1;fill-rule:nonzero;stroke:none"
             d="m 0,0 c 0,0 4.769,-37.505 9.764,-40.916 4.994,-3.411 11.225,-7.02 12.279,-9.568 1.055,-2.548 4.25,-14.073 7.149,-16.753 2.9,-2.68 8.641,-8.849 8.376,-12.539 -0.263,-3.691 3.398,-13.009 -1.215,-17.006 -4.613,-3.998 -11.737,-12.848 -7.783,-18.075 3.953,-5.228 5.557,-4.416 8.456,-7.096 2.899,-2.68 6.815,-10.702 5.095,-15.2 -2.056,-5.376 -2.439,-12.498 0.416,-15.793 2.856,-3.295 11.057,-8.054 16.397,-12.763 5.339,-4.708 8.136,-18.044 11.87,-26.348 3.734,-8.303 10.357,-24.169 11.08,-21.402 0.724,2.767 57.937,189.139 57.937,189.139 0,0 -117.931,8.875 -139.821,24.32" />
        </g>
        <g
           transform="translate(315.519,319.7545)"
           id="g3386">
          <path
             id="path3388"
             style="fill:#e5ae5e;fill-opacity:1;fill-rule:nonzero;stroke:none"
             d="m 0,0 c 0,0 4.769,-37.505 9.764,-40.916 4.994,-3.411 11.225,-7.02 12.279,-9.568 1.055,-2.548 4.25,-14.073 7.149,-16.753 2.9,-2.68 8.641,-8.849 8.376,-12.539 -0.263,-3.691 3.398,-13.009 -1.215,-17.006 -4.613,-3.998 -11.737,-12.848 -7.783,-18.075 3.953,-5.228 5.557,-4.416 8.456,-7.096 2.899,-2.68 6.815,-10.702 5.095,-15.2 -2.056,-5.376 -2.439,-12.498 0.416,-15.793 2.856,-3.295 11.057,-8.054 16.397,-12.763 5.339,-4.708 8.136,-18.044 11.87,-26.348 3.734,-8.303 5.407,-14.477 6.758,-15.037 5.031,12.003 45.479,135.191 51.283,167.593 14.466,5.626 9.334,9.835 10.976,15.181 0,0 -117.931,8.875 -139.821,24.32" />
        </g>
        <g
           transform="translate(349.0317,215.6706)"
           id="g3390">
          <path
             id="path3392"
             style="fill:#ffc571;fill-opacity:1;fill-rule:nonzero;stroke:none"
             d="M 0,0 C 0,0 24.444,-47.183 48.132,-72.521 48.132,-72.521 6.193,-10.643 0,0" />
        </g>
        <g
           transform="translate(338.1172,277.0094)"
           id="g3394">
          <path
             id="path3396"
             style="fill:#ffc571;fill-opacity:1;fill-rule:nonzero;stroke:none"
             d="M 0,0 C -0.242,0.487 30.435,-73.63 71.329,-111.209 71.329,-111.209 33.061,-66.498 0,0" />
        </g>
        <g
           transform="translate(365.793,275.0309)"
           id="g3398">
          <path
             id="path3400"
             style="fill:#ffc571;fill-opacity:1;fill-rule:nonzero;stroke:none"
             d="M 0,0 C 0,0 16.78,-44.141 52.592,-81.473 52.592,-81.473 22.06,-41.625 0,0" />
        </g>
        <g
           transform="translate(396.6982,272.8214)"
           id="g3402">
          <path
             id="path3404"
             style="fill:#ffc571;fill-opacity:1;fill-rule:nonzero;stroke:none"
             d="M 0,0 C 0,0 12.399,-27.601 28.872,-50.105 28.872,-50.105 6.705,-10.914 0,0" />
        </g>
        <g
           transform="translate(426.9238,274.0822)"
           id="g3406">
          <path
             id="path3408"
             style="fill:#ffc571;fill-opacity:1;fill-rule:nonzero;stroke:none"
             d="M 0,0 C 0,0 4.594,-15.264 10.286,-25.589 10.286,-25.589 6.391,-7.875 0,0" />
        </g>
        <g
           transform="translate(372.0674,161.1706)"
           id="g3410">
          <path
             id="path3412"
             style="fill:#ffc571;fill-opacity:1;fill-rule:nonzero;stroke:none"
             d="M 0,0 C 0,0 28.528,23.495 50.142,46.968 50.142,46.968 21.557,9.123 0,0" />
        </g>
        <g
           transform="translate(387.1807,139.6906)"
           id="g3414">
          <path
             id="path3416"
             style="fill:#ffc571;fill-opacity:1;fill-rule:nonzero;stroke:none"
             d="M 0,0 C 0,0 17.14,12.212 21.747,18.845 21.747,18.845 12.751,3.261 0,0" />
        </g>
        <g
           transform="translate(362.2578,180.1852)"
           id="g3418">
          <path
             id="path3420"
             style="fill:#ffc571;fill-opacity:1;fill-rule:nonzero;stroke:none"
             d="M 0,0 C 0,0 64.418,58.006 78.536,73.897 78.536,73.897 33.46,20.557 0,0" />
        </g>
        <g
           transform="translate(348.2402,204.6002)"
           id="g3422">
          <path
             id="path3424"
             style="fill:#ffc571;fill-opacity:1;fill-rule:nonzero;stroke:none"
             d="M 0,0 C 0,0 77.76,56.566 94.433,75.774 94.433,75.774 30.609,13.111 0,0" />
        </g>
        <g
           transform="translate(352.8818,237.0973)"
           id="g3426">
          <path
             id="path3428"
             style="fill:#ffc571;fill-opacity:1;fill-rule:nonzero;stroke:none"
             d="M 0,0 C 0,0 46.406,26.559 56.271,34.836 56.271,34.836 13.535,1.263 0,0" />
        </g>
        <g
           transform="translate(341.6211,261.172)"
           id="g3430">
          <path
             id="path3432"
             style="fill:#ffc571;fill-opacity:1;fill-rule:nonzero;stroke:none"
             d="M 0,0 C 0,0 23.642,6.437 34.555,13.184 34.555,13.184 13.772,-1.912 0,0" />
        </g>
        <g
           transform="translate(311.4429,293.0011)"
           id="g3434">
          <path
             id="path3436"
             style="fill:#c68f46;fill-opacity:1;fill-rule:nonzero;stroke:none"
             d="M 0,0 C 0,0 66.586,-28.405 131.23,-12.627 131.23,-12.627 69.847,-34.665 0,0" />
        </g>
        <g
           transform="translate(308.7339,300.5045)"
           id="g3438">
          <path
             id="path3440"
             style="fill:#c68f46;fill-opacity:1;fill-rule:nonzero;stroke:none"
             d="m 0,0 c 0,0 5.392,-1.745 8.755,-3.995 3.364,-2.249 25.973,-10.61 58.412,-15.159 32.44,-4.549 61.211,1.241 73.3,7.116 12.089,5.876 -28.013,5.902 -52.442,11.156 C 63.597,4.371 -6.02,6.581 0,0" />
        </g>
        <g
           transform="translate(304.0107,340.3586)"
           id="g3442">
          <path
             id="path3444"
             style="fill:#ffcce4;fill-opacity:1;fill-rule:nonzero;stroke:none"
             d="m 0,0 c 0,0 -10.498,34.75 11.821,61.589 22.318,26.841 57.507,34.834 91.113,29.34 33.607,-5.493 60.577,-43.275 61.543,-64.361 0.965,-21.087 -2.858,-39.977 -2.858,-39.977 0,0 7.643,-5.491 8.961,-13.004 1.317,-7.512 -2.242,-14.057 -7.997,-16.736 -5.755,-2.68 -8.566,-7.424 -7.512,-9.972 1.054,-2.548 2.326,-27.984 -3.253,-28.203 -5.579,-0.219 -8.83,6.195 -6.94,15.332 1.89,9.137 -0.263,13.618 -4.568,13.926 -4.305,0.308 -20.472,-1.009 -21.438,-5.885 -0.967,-4.877 -9.624,-56.801 -9.889,-69.146 -0.264,-12.344 1.359,-50.169 -8.92,-46.961 -10.28,3.207 -7.203,28.951 -1.667,45.863 5.536,16.913 14.808,60.14 12.217,67.125 -2.592,6.985 -9.006,3.735 -16.43,3.647 -7.424,-0.087 -62.469,8.175 -68.97,12.349 -6.501,4.174 -6.108,-24.908 -5.844,-29.872 0.263,-4.965 2.766,-21.834 -3.911,-20.12 -6.678,1.713 -3.909,23.151 -1.887,34.134 2.021,10.982 3.691,17.044 -2.987,18.758 -6.677,1.714 -22.403,6.547 -25.829,19.155 C -18.671,-10.411 -11.686,0.835 0,0" />
        </g>
      </g>
    </g>
    <g
       id="g3446"
       transform="matrix(1.25,0,0,-1.25,-165.93785,824.25034)">
      <g
         clip-path="url(#clipPath3450)"
         id="g3448">
        <g
           transform="translate(443.5259,411.6881)"
           id="g3454">
          <path
             id="path3456"
             style="fill:#eda2c8;fill-opacity:1;fill-rule:nonzero;stroke:none"
             d="m 0,0 c 0,0 15.942,-32.99 5.543,-56.973 -10.398,-23.984 -34.775,-30.895 -43.746,-29.635 -8.972,1.259 -39.612,13.649 -55.351,9.674 -15.738,-3.974 -19.414,-10.666 -29.925,-3.887 0,0 2.031,-8.399 7.575,-9.351 5.544,-0.952 22.888,7.953 27.485,5.07 4.596,-2.883 16.301,-15.915 27.977,-17.225 11.675,-1.311 21.486,14.575 31.424,11.547 9.938,-3.027 18.512,-10.813 25.041,-13.741 6.53,-2.928 2.532,-11.296 -10.845,-14.667 -13.377,-3.371 -48.374,-4.362 -60.045,3.164 -11.671,7.526 -18.696,4.361 -26.122,4.253 -7.426,-0.108 -26.316,3.715 -31.851,8.438 -5.535,4.723 -23.018,10.918 -29.608,13.861 -6.59,2.944 2.785,-24.771 19.935,-25.456 17.15,-0.685 16.23,2.471 18.322,-4.323 2.091,-6.795 2.64,-20.895 1.388,-25.441 -1.253,-4.547 -5.154,-14.755 -1.255,-21.704 3.9,-6.948 24.937,-5.709 32.336,2.68 7.4,8.388 55.593,33.997 59.964,34.612 4.371,0.614 6.196,-3.168 6.259,-16.211 0.063,-13.043 -9.928,-46.271 -10.632,-52.711 -0.705,-6.441 2.59,-57.06 -8.643,-41.361 -11.234,15.699 -7.331,-10.041 -2.279,-12.875 5.052,-2.834 27.427,8.095 28.389,27.024 0.962,18.928 9.294,83.333 12.52,90.402 3.227,7.069 3.6,7.97 5.269,9.705 1.67,1.735 6.722,3.229 8.721,0.922 1.998,-2.306 5.239,-26.152 -0.347,-26.463 -5.585,-0.312 -0.201,-11.468 3.334,-11.744 3.534,-0.276 25.639,23.584 28.965,44.162 3.326,20.577 18.441,76.368 2.298,96.994 C 25.953,-0.634 10.114,3.619 0,0" />
        </g>
      </g>
    </g>
    <g
       id="g3458"
       transform="matrix(1.25,0,0,-1.25,-165.93785,824.25034)">
      <g
         clip-path="url(#clipPath3462)"
         id="g3460">
        <g
           transform="translate(365.0308,424.0963)"
           id="g3466">
          <path
             id="path3468"
             style="fill:#f9dcea;fill-opacity:1;fill-rule:nonzero;stroke:none"
             d="m 0,0 c -7.472,0.327 -22.923,-5.802 -30.102,-14.722 -7.178,-8.92 -4.281,-22.181 3.004,-25.867 9.132,-4.62 28.102,1.786 36.553,8.475 C 14.965,-27.754 30.858,-1.352 0,0" />
        </g>
        <g
           transform="translate(388.4224,312.8024)"
           id="g3470">
          <path
             id="path3472"
             style="fill:#ffcd85;fill-opacity:1;fill-rule:nonzero;stroke:none"
             d="m 0,0 c 0,0 62.12,-186.905 69.087,-206.346 6.968,-19.442 11.401,-31.357 17.689,-34.477 6.288,-3.119 19.474,-3.077 23.185,14.514 3.712,17.592 7.406,40.834 10.499,55.285 3.094,14.45 31.532,154.962 33.397,160.728 C 155.723,-4.531 66.661,-34.322 0,0" />
        </g>
        <g
           transform="translate(391.7187,312.8131)"
           id="g3474">
          <path
             id="path3476"
             style="fill:#edb966;fill-opacity:1;fill-rule:nonzero;stroke:none"
             d="m 0,0 c 0,0 -2.608,-2.44 0.285,-10.781 1.264,-3.643 3.225,-9.694 14.398,-16.171 17.928,-51.676 52.674,-162.149 58.007,-177.029 6.968,-19.441 7.757,-28.781 14.226,-31.505 4.13,-1.739 9.822,0.826 13.146,12.599 4.444,15.746 9.762,34.415 13.956,54.003 3.093,14.45 34.678,152.812 36.543,158.577 C 152.426,-4.542 66.661,-34.322 0,0" />
        </g>
        <g
           transform="translate(402.8511,316.6154)"
           id="g3478">
          <path
             id="path3480"
             style="fill:#ffcd85;fill-opacity:1;fill-rule:nonzero;stroke:none"
             d="m 0,0 c 0,0 7.686,-37.723 13.016,-40.808 5.331,-3.084 11.931,-6.277 13.195,-8.784 1.264,-2.508 5.382,-13.969 8.53,-16.47 3.147,-2.501 9.444,-8.331 9.456,-12.098 0.011,-3.767 4.435,-12.951 0.054,-17.361 -4.381,-4.408 -10.943,-13.935 -6.532,-18.944 4.41,-5.009 5.977,-4.062 9.124,-6.563 3.147,-2.502 7.732,-10.351 6.326,-15.049 -1.68,-5.615 -1.529,-12.876 1.621,-16.006 3.148,-3.128 11.837,-7.339 17.616,-11.716 5.78,-4.377 9.631,-17.706 14.052,-25.855 4.42,-8.148 12.349,-23.757 12.874,-20.892 0.525,2.864 44.492,196.45 44.492,196.45 0,0 -120.425,0.072 -143.824,14.096" />
        </g>
        <g
           transform="translate(402.8511,316.6154)"
           id="g3482">
          <path
             id="path3484"
             style="fill:#e5ae5e;fill-opacity:1;fill-rule:nonzero;stroke:none"
             d="m 0,0 c 0,0 7.686,-37.723 13.016,-40.808 5.331,-3.084 11.931,-6.277 13.195,-8.784 1.264,-2.508 5.382,-13.969 8.53,-16.47 3.147,-2.501 9.444,-8.331 9.456,-12.098 0.011,-3.767 4.435,-12.951 0.054,-17.361 -4.381,-4.408 -10.943,-13.935 -6.532,-18.944 4.41,-5.009 5.977,-4.062 9.124,-6.563 3.147,-2.502 7.732,-10.351 6.326,-15.049 -1.68,-5.615 -1.529,-12.876 1.621,-16.006 3.148,-3.128 11.837,-7.339 17.616,-11.716 5.78,-4.377 9.631,-17.706 14.052,-25.855 4.42,-8.148 6.588,-14.291 8.002,-14.757 4.199,12.57 35.931,140.726 39.369,174.068 14.262,6.81 8.732,10.696 9.995,16.247 0,0 -120.425,0.072 -143.824,14.096" />
        </g>
        <g
           transform="translate(444.772,213.465)"
           id="g3486">
          <path
             id="path3488"
             style="fill:#ffc571;fill-opacity:1;fill-rule:nonzero;stroke:none"
             d="M 0,0 C 0,0 28.399,-46.058 54.374,-69.991 54.374,-69.991 7.096,-10.337 0,0" />
        </g>
        <g
           transform="translate(429.0386,274.9235)"
           id="g3490">
          <path
             id="path3492"
             style="fill:#ffc571;fill-opacity:1;fill-rule:nonzero;stroke:none"
             d="m 0,0 c -0.283,0.477 36.487,-72.459 80.862,-107.518 0,0 -42.249,42.5 -80.862,107.518" />
        </g>
        <g
           transform="translate(457.292,275.0128)"
           id="g3494">
          <path
             id="path3496"
             style="fill:#ffc571;fill-opacity:1;fill-rule:nonzero;stroke:none"
             d="M 0,0 C 0,0 20.386,-43.55 59.581,-78.743 59.581,-78.743 25.556,-40.595 0,0" />
        </g>
        <g
           transform="translate(488.8413,275.112)"
           id="g3498">
          <path
             id="path3500"
             style="fill:#ffc571;fill-opacity:1;fill-rule:nonzero;stroke:none"
             d="M 0,0 C 0,0 14.683,-27.086 33.116,-48.689 33.116,-48.689 7.636,-10.573 0,0" />
        </g>
        <g
           transform="translate(519.438,278.6837)"
           id="g3502">
          <path
             id="path3504"
             style="fill:#ffc571;fill-opacity:1;fill-rule:nonzero;stroke:none"
             d="M 0,0 C 0,0 5.823,-15.151 12.385,-25.204 12.385,-25.204 7.087,-7.512 0,0" />
        </g>
        <g
           transform="translate(472.2954,159.8703)"
           id="g3506">
          <path
             id="path3508"
             style="fill:#ffc571;fill-opacity:1;fill-rule:nonzero;stroke:none"
             d="M 0,0 C 0,0 27.187,26.021 47.355,51.495 47.355,51.495 21.198,10.897 0,0" />
        </g>
        <g
           transform="translate(489.27,139.2047)"
           id="g3510">
          <path
             id="path3512"
             style="fill:#ffc571;fill-opacity:1;fill-rule:nonzero;stroke:none"
             d="M 0,0 C 0,0 16.479,13.699 20.654,20.784 20.654,20.784 12.701,4.278 0,0" />
        </g>
        <g
           transform="translate(460.8931,178.4347)"
           id="g3514">
          <path
             id="path3516"
             style="fill:#ffc571;fill-opacity:1;fill-rule:nonzero;stroke:none"
             d="M 0,0 C 0,0 61.015,63.786 74.146,80.992 74.146,80.992 32.417,23.411 0,0" />
        </g>
        <g
           transform="translate(444.8076,202.1637)"
           id="g3518">
          <path
             id="path3520"
             style="fill:#ffc571;fill-opacity:1;fill-rule:nonzero;stroke:none"
             d="M 0,0 C 0,0 74.672,63.335 90.146,84.104 90.146,84.104 30.088,15.635 0,0" />
        </g>
        <g
           transform="translate(447.0571,235.5148)"
           id="g3522">
          <path
             id="path3524"
             style="fill:#ffc571;fill-opacity:1;fill-rule:nonzero;stroke:none"
             d="M 0,0 C 0,0 45.109,30.487 54.498,39.64 54.498,39.64 13.648,2.308 0,0" />
        </g>
        <g
           transform="translate(433.7974,259.1071)"
           id="g3526">
          <path
             id="path3528"
             style="fill:#ffc571;fill-opacity:1;fill-rule:nonzero;stroke:none"
             d="M 0,0 C 0,0 23.519,8.329 34.089,16.007 34.089,16.007 14.13,-0.897 0,0" />
        </g>
        <g
           transform="translate(400.7402,289.1398)"
           id="g3530">
          <path
             id="path3532"
             style="fill:#c68f46;fill-opacity:1;fill-rule:nonzero;stroke:none"
             d="M 0,0 C 0,0 69.767,-23.795 134.213,-2.873 134.213,-2.873 73.554,-29.905 0,0" />
        </g>
        <g
           transform="translate(397.4209,296.5539)"
           id="g3534">
          <path
             id="path3536"
             style="fill:#c68f46;fill-opacity:1;fill-rule:nonzero;stroke:none"
             d="m 0,0 c 0,0 5.607,-1.364 9.193,-3.393 3.586,-2.029 27.178,-8.805 60.463,-10.964 33.286,-2.161 62.062,5.9 73.892,12.783 C 155.377,5.309 114.655,2.295 89.451,5.777 64.248,9.259 -6.612,6.226 0,0" />
        </g>
        <g
           transform="translate(386.9731,337.1203)"
           id="g3538">
          <path
             id="path3540"
             style="fill:#cdffdf;fill-opacity:1;fill-rule:nonzero;stroke:none"
             d="m 0,0 c 0,0 -13.294,34.49 7.334,63.437 20.628,28.946 55.754,39.73 90.295,36.7 34.542,-3.03 64.794,-39.35 67.372,-60.689 2.579,-21.339 0.129,-40.811 0.129,-40.811 0,0 8.178,-4.996 10.085,-12.525 1.908,-7.528 -1.21,-14.445 -6.85,-17.601 -5.641,-3.157 -8.136,-8.188 -6.873,-10.696 1.263,-2.507 4.484,-28.239 -1.165,-28.885 -5.648,-0.645 -9.435,5.621 -8.209,15.043 1.226,9.422 -1.3,13.809 -5.695,13.795 -4.394,-0.014 -20.711,-2.577 -21.322,-7.601 -0.613,-5.025 -5.467,-58.409 -4.8,-70.963 0.668,-12.556 5.184,-50.841 -5.498,-48.363 -10.681,2.478 -9.509,28.851 -5.169,46.445 4.34,17.594 10.477,62.191 7.316,69.088 -3.161,6.896 -9.428,3.109 -16.96,2.458 -7.532,-0.652 -64.052,3.564 -70.97,7.31 -6.918,3.745 -4.314,-25.756 -3.67,-30.777 0.643,-5.021 4.464,-21.961 -2.447,-20.727 -6.91,1.234 -5.723,23.213 -4.503,34.518 1.22,11.305 2.455,17.588 -4.455,18.822 -6.91,1.233 -23.246,4.949 -27.68,17.492 C -18.17,-11.986 -11.929,-0.038 0,0" />
        </g>
      </g>
    </g>
    <g
       id="g3542"
       transform="matrix(1.25,0,0,-1.25,-165.93785,824.25034)">
      <g
         clip-path="url(#clipPath3546)"
         id="g3544">
        <g
           transform="translate(523.2344,420.1281)"
           id="g3550">
          <path
             id="path3552"
             style="fill:#b4dbc1;fill-opacity:1;fill-rule:nonzero;stroke:none"
             d="m 0,0 c 0,0 18.689,-32.291 9.948,-57.432 -8.74,-25.142 -32.969,-34.008 -42.175,-33.41 -9.205,0.599 -41.258,10.858 -56.938,5.629 -15.68,-5.23 -18.906,-12.304 -30.094,-6.217 0,0 2.7,-8.374 8.402,-8.921 5.702,-0.546 22.639,9.811 27.524,7.232 4.886,-2.579 17.76,-14.924 29.715,-15.37 11.955,-0.446 20.713,16.428 31.035,14.108 10.321,-2.321 19.617,-9.577 26.469,-12.055 6.853,-2.478 3.427,-11.279 -9.901,-15.716 -13.328,-4.437 -48.79,-8.096 -61.212,-1.339 -12.421,6.758 -19.315,3.011 -26.848,2.338 -7.532,-0.673 -27.003,1.778 -32.982,6.153 -5.978,4.377 -24.201,9.342 -31.116,11.832 -6.914,2.489 4.707,-24.943 22.173,-24.338 17.467,0.604 16.293,3.74 18.932,-3.001 2.639,-6.742 4.266,-21.017 3.339,-25.729 -0.927,-4.712 -4.115,-15.373 0.371,-22.134 4.487,-6.76 25.755,-3.906 32.632,5.173 6.878,9.079 53.874,38.737 58.266,39.692 4.392,0.956 6.531,-2.747 7.585,-15.986 1.053,-13.239 -6.574,-47.738 -6.801,-54.331 -0.227,-6.594 6.956,-57.745 -5.641,-42.655 -12.597,15.091 -6.682,-10.752 -1.337,-13.247 5.344,-2.494 27.237,10.301 26.778,29.594 -0.458,19.294 3.12,85.324 5.86,92.747 2.74,7.423 3.051,8.366 4.615,10.255 1.563,1.888 6.58,3.787 8.785,1.597 2.204,-2.191 7.303,-26.159 1.654,-26.899 -5.648,-0.739 0.665,-11.659 4.275,-11.672 3.61,-0.012 24.248,25.892 26.064,47.039 1.817,21.148 12.936,78.945 -5.02,98.667 C 26.401,1.324 9.996,4.442 0,0" />
        </g>
      </g>
    </g>
    <g
       id="g3554"
       transform="matrix(1.25,0,0,-1.25,-165.93785,824.25034)">
      <g
         clip-path="url(#clipPath3558)"
         id="g3556">
        <g
           transform="translate(442.3604,415.1974)"
           id="g3562">
          <path
             id="path3564"
             style="fill:#e6ffee;fill-opacity:1;fill-rule:nonzero;stroke:none"
             d="m 0,0 c -7.611,-0.234 -22.837,-7.629 -29.45,-17.231 -6.613,-9.602 -2.665,-22.849 5.012,-26.039 9.622,-3.999 28.4,3.945 36.474,11.377 C 17.3,-27.048 31.437,0.967 0,0" />
        </g>
      </g>
    </g>
  </g>
</svg>
